<svg width="16" height="16" viewBox="0 0 16 16" fill="none" xmlns="http://www.w3.org/2000/svg">
  <path d="M4 0C4 0 4 3 0 3C-0.126958 3 0.00504203 3.13204 0.00504203 3.25V15.75C0.00504203 15.8679 -0.126958 16 0 16H16C16.1269 16 16 15.8679 16 15.75V3.25C16 3.13204 15.873 3 15.75 3C11.75 3 11.75 0 11.75 0H4ZM8 6C8 6.26522 7.89464 6.51957 7.70711 6.70711C7.51957 6.89464 7.26522 7 7 7H4V10C4 10.2652 4.10536 10.5196 4.29289 10.7071C4.48043 10.8946 4.73478 11 5 11H11C11.2652 11 11.5196 10.8946 11.7071 10.7071C11.8946 10.5196 12 10.2652 12 10V7H9C8.73478 7 8.48043 6.89464 8.29289 6.70711C8.10536 6.51957 8 6.26522 8 6ZM5 4H10C10.2761 4 10.5 4.22386 10.5 4.5V5H4.5V4.5C4.5 4.22386 4.72386 4 5 4Z" fill="#66789C"/>
</svg>